<svg width="96px" height="96px" viewBox="0 0 96 96" version="1.1" xmlns="http://www.w3.org/2000/svg" xmlns:xlink="http://www.w3.org/1999/xlink" data-v-cb7b9402=""><title data-v-cb7b9402="">AVFC</title> <g id="Setup" stroke="none" stroke-width="1" fill="none" fill-rule="evenodd" data-v-cb7b9402=""><g id="Styles-Export" transform="translate(-1301.000000, -205.000000)" fill-rule="nonzero" data-v-cb7b9402=""><g id="Master-Crest-/-Home-/-Default" transform="translate(1301.000000, 205.000000)" data-v-cb7b9402=""><g id="colour-on-dark" transform="translate(14.400000, 0.000000)" data-v-cb7b9402=""><path d="M0,0 L0,72.5427624 C0,83.680884 13.1288398,87.3281768 22.7164641,89.9924862 C24.6364641,90.5228729 26.4486188,91.0302762 28.0203315,91.5447514 C28.9736568,91.884324 29.886706,92.3278051 30.7429834,92.8671823 C31.8603315,93.6026519 33.0059669,94.8472928 33.0183425,94.8579006 L33.9270718,95.8514917 L34.839337,94.8596685 C34.8517127,94.8472928 35.9973481,93.6026519 37.1146961,92.8671823 C37.9674049,92.3279373 38.8776454,91.8855663 39.8285083,91.5482873 C41.400221,91.0302762 43.2141436,90.5246409 45.1323757,89.9924862 C54.718232,87.3281768 67.8488398,83.6826519 67.8488398,72.5427624 L67.8488398,0 L0,0 Z" id="Path" fill="#FFFFFF" data-v-cb7b9402=""></path> <path d="M65.3754696,72.5427624 C65.3754696,81.8050829 53.7812155,85.0262983 44.4658564,87.6145856 C42.521105,88.1555801 40.6753591,88.6665193 39.041768,89.2057459 C37.8877747,89.6098385 36.783391,90.1436437 35.7498343,90.7969061 C35.1005966,91.2426734 34.4891745,91.7411538 33.921768,92.2872928 C33.353314,91.7466116 32.7419554,91.252913 32.0937017,90.8110497 C31.05868,90.1559247 29.9517364,89.6220291 28.7946961,89.2198895 C27.1664088,88.6895028 25.3259669,88.1714917 23.3776796,87.6287293 C14.0623204,85.0262983 2.47513812,81.8050829 2.47513812,72.5427624 L2.47513812,2.47513812 L65.3754696,2.47513812 L65.3754696,72.5427624 Z" id="Path" fill="#94BEE5" data-v-cb7b9402=""></path> <polygon id="Path" fill="#FFFFFF" points="10.2700552 30.1878453 12.2749171 29.12 14.279779 30.1878453 13.8943646 27.919558 15.5173481 26.3160221 13.2755801 25.9871823 12.2749171 23.9239779 11.2724862 25.9871823 9.03248619 26.3160221 10.6537017 27.919558" data-v-cb7b9402=""></polygon> <path d="M33.9447514,6.01104972 C33.3295028,6.05348066 32.6930387,6.07469613 31.9717127,6.07469613 C31.1655249,6.07469613 30.359337,6.05348066 29.360442,6.01104972 C29.1058564,6.11712707 29.1058564,6.56265193 29.2755801,6.73237569 L29.9562431,6.88088398 C30.4654144,7.0081768 30.6333702,7.09303867 30.6333702,7.23447514 C30.6002394,7.49803719 30.5287658,7.75534207 30.4212155,7.99823204 C30.1666298,8.71955801 29.2543646,11.0956906 28.7239779,12.4340331 L27.9177901,14.4282873 C27.6632044,15.0647514 27.3237569,15.7860773 27.1540331,16.1467403 L26.4468508,14.3646409 L24.5745856,9.59469613 C24.0654144,8.32176796 23.7259669,7.43071823 23.7259669,7.26099448 C23.7259669,7.09127072 23.8744751,6.94099448 24.2563536,6.8561326 L24.8928177,6.72883978 C25.0201105,6.53790055 25.041326,6.13480663 24.8716022,6.00751381 C23.5774586,6.04994475 22.6651934,6.07116022 21.6892818,6.07116022 C20.5843094,6.07116022 19.8841989,6.02872928 18.8022099,6.00751381 C18.6112707,6.11359116 18.5476243,6.49546961 18.7173481,6.72883978 L19.5659669,6.94099448 C20.2448619,7.11779006 20.3509392,7.15314917 21.1571271,9.19160221 L24.5958011,17.8298343 C24.8928177,18.5511602 25.2534807,19.6755801 25.479779,20.2483978 C25.644297,20.372251 25.8468933,20.4347807 26.0525967,20.4251934 C26.3116356,20.4354259 26.5685043,20.3742667 26.7951381,20.2483978 C27.2830939,19.0603315 27.8346961,17.3843094 28.9166851,14.8154696 L30.479558,11.1381215 C31.200884,9.41966851 31.7312707,8.23160221 32.198011,7.53149171 C32.4738122,7.0841989 32.8344751,6.93569061 33.4355801,6.82430939 L33.9871823,6.71823204 C34.1356906,6.59093923 34.1144751,6.08176796 33.9447514,5.99690608" id="Path" fill="#660033" data-v-cb7b9402=""></path> <path d="M43.3149171,6.07116022 L38.5697238,6.07116022 C37.5513812,6.07116022 36.4888398,6.04994475 35.5765746,6.00751381 C35.3432044,6.09237569 35.3432044,6.62276243 35.5341436,6.75005525 L35.958453,6.81370166 C36.9131492,6.9639779 37.040442,7.15491713 37.040442,9.1279558 L37.040442,17.0236464 C37.040442,18.9966851 36.9131492,19.1451934 35.958453,19.2937017 L35.2512707,19.399779 C35.0744751,19.5270718 35.0744751,20.0150276 35.2512707,20.1423204 C36.5241989,20.0998895 37.5849724,20.078674 38.5626519,20.078674 C39.5809945,20.078674 40.6205525,20.0998895 41.9359116,20.1423204 C42.0844199,20.0150276 42.0844199,19.5270718 41.9359116,19.399779 L41.1509392,19.2937017 C40.1962431,19.1664088 40.0689503,18.9966851 40.0689503,17.0236464 L40.0689503,14.1577901 C40.0689503,13.5849724 40.0901657,13.521326 40.6629834,13.521326 L42.5900552,13.521326 C43.7144751,13.521326 43.9478453,13.6981215 44.16,14.7093923 L44.2660773,15.2185635 C44.4145856,15.4095028 44.9449724,15.3953591 45.0722652,15.1973481 C45.0298343,14.560884 45.0086188,13.7829834 45.0086188,12.9909392 C45.0086188,12.198895 45.0298343,11.399779 45.0722652,10.719116 C44.9449724,10.5281768 44.4145856,10.5069613 44.2660773,10.6979006 L44.16,11.2070718 C43.9478453,12.2483978 43.7144751,12.3969061 42.5900552,12.3969061 L40.6629834,12.3969061 C40.0901657,12.3969061 40.0689503,12.3332597 40.0689503,11.758674 L40.0689503,7.91867403 C40.0689503,7.08950276 40.0689503,7.04883978 40.7761326,7.04883978 L42.720884,7.04883978 C43.8028729,7.04883978 44.439337,7.30342541 44.8,7.7560221 C45.0121547,8.0318232 45.1818785,8.54099448 45.4152486,9.41082873 C45.6698343,9.58762431 46.1365746,9.55933702 46.2214365,9.32596685 C46.1790055,7.91160221 46.1790055,6.37524862 46.1790055,6.01458564 C45.881989,6.05701657 44.6727072,6.07823204 43.3149171,6.07823204" id="Path" fill="#660033" data-v-cb7b9402=""></path> <path d="M61.0704972,16.1520442 C60.4976796,17.5964641 59.3096133,19.4475138 56.7513812,19.4475138 C54.1931492,19.4475138 51.7639779,17.1756906 51.7639779,12.9538122 C51.7639779,8.7319337 54.2886188,6.71823204 56.6453039,6.71823204 C58.6961326,6.71823204 60.0609945,7.77900552 60.640884,9.74850829 C60.7893923,9.93944751 61.3622099,9.85458564 61.4488398,9.6 C61.2909736,8.50088148 61.1982885,7.39338397 61.1712707,6.28331492 C60.5330387,6.24088398 58.9630939,5.73171271 56.799116,5.73171271 C54.5909392,5.73171271 52.4269613,6.3681768 50.918895,7.62165746 C49.4550276,8.83093923 48.3518232,10.6554696 48.3518232,13.2455249 C48.3518232,15.8762431 49.518674,17.638895 51.0461878,18.8057459 C52.5542541,19.9301657 54.6758011,20.4181215 56.7566851,20.4181215 C58.4114917,20.4181215 59.9177901,19.9513812 61.0634254,19.6331492 C61.3622099,19.1451934 61.7228729,17.8651934 61.8713812,16.3005525 C61.7440884,16.0459669 61.2349171,15.9823204 61.0634254,16.1520442" id="Path" fill="#660033" data-v-cb7b9402=""></path> <path d="M19.4475138,19.2707182 C18.6625414,19.1434254 18.4716022,18.6554696 18.0331492,17.3825414 L15.1425414,9.07314917 C14.6121547,7.56685083 14.3575691,6.77480663 14.1878453,6.16486188 C14.1029834,5.84662983 13.9756906,5.74055249 13.6998895,5.74055249 C13.6609945,5.74055249 12.9927072,6.61038674 12.1087293,6.93745856 L11.5783425,8.3518232 C11.5076243,8.55160221 11.4245304,8.76906077 11.3325967,9.00950276 L11.0727072,9.70254144 L11.0727072,9.71668508 L9.1279558,14.8879558 C8.55513812,16.4154696 8.1520442,17.4338122 7.79138122,18.2841989 C7.43071823,19.1345856 7.00640884,19.281326 6.49723757,19.3449724 L5.92265193,19.4086188 C5.77414365,19.5854144 5.74585635,20.0238674 5.98629834,20.1511602 C6.96220994,20.1511602 7.4519337,20.0875138 8.17325967,20.0875138 C9.05723757,20.1087293 9.8280663,20.1087293 10.5706077,20.1511602 C10.7827624,20.0450829 10.7474033,19.5571271 10.6148066,19.4086188 L9.97657459,19.3025414 C9.38254144,19.1964641 9.10674033,19.0691713 9.10674033,18.9489503 C9.11525044,18.6880801 9.16538506,18.4302448 9.25524862,18.1851934 L10.0826519,15.7224309 C10.2099448,15.319337 10.2735912,15.2981215 10.7898343,15.2981215 L13.318011,15.2981215 C14.0605525,15.2981215 14.2302762,15.3405525 14.3363536,15.68 L14.9091713,17.5027624 C15.1637569,18.2877348 15.3122652,18.7969061 15.3122652,18.9454144 C15.3122652,19.0939227 15.2274033,19.2212155 14.7394475,19.2990055 L14.0605525,19.4050829 C13.9551373,19.502948 13.898865,19.6427305 13.907071,19.7863363 C13.9152771,19.929942 13.9871063,20.0624044 14.1029834,20.1476243 C15.078895,20.1051934 15.9062983,20.0839779 16.9688398,20.0839779 C18.0720442,20.0839779 19.2176796,20.1051934 20.2360221,20.1476243 C20.4269613,20.0203315 20.3845304,19.5111602 20.2572376,19.4050829 L19.4475138,19.2707182 Z M13.2119337,14.1577901 L11.2159116,14.1577901 C10.6855249,14.1577901 10.5794475,14.0941436 10.7703867,13.521326 L11.3007735,11.9301657 C11.6207735,10.9524862 12.0450829,9.80861878 12.2148066,9.31889503 C12.4057459,9.76441989 12.7876243,10.9100552 13.0846409,11.8223204 L13.6362431,13.5425414 C13.8130387,14.0941436 13.6998895,14.1577901 13.2119337,14.1577901" id="Shape" fill="#660033" data-v-cb7b9402=""></path> <path d="M27.0727072,30.6987845 C26.6996685,31.0735912 26.7474033,31.5403315 26.4114917,31.8762431 C26.2588692,32.0305278 26.050383,32.1166001 25.8333702,32.1149171 C25.6176789,32.1163284 25.4102617,32.0319965 25.2567502,31.8804744 C25.1032388,31.7289523 25.0162087,31.5226526 25.0148066,31.3069613 L25.0148066,31.2928177 C25.0148066,30.8720442 25.4939227,30.5007735 26.8181215,30.5007735 C26.991016,30.497931 27.1639379,30.504423 27.3361326,30.520221 C27.2360678,30.558442 27.145993,30.6188949 27.0727072,30.6970166 M59.6172376,40.6134807 C59.420889,40.6083981 59.2247264,40.6292032 59.0338122,40.6753591 C59.0338122,40.6753591 61.5407735,38.2143646 61.5407735,34.3690608 C61.5407735,32.6205525 61.1270718,31.9469613 61.0563536,31.9469613 C60.9255249,31.9469613 60.9237569,32.9882873 60.1175691,33.7927072 C59.5359116,34.3761326 58.6201105,34.4362431 58.1091713,34.9454144 C58.6024309,33.8846409 58.2488398,32.4702762 58.1781215,32.4702762 C58.1074033,32.4702762 58.1480663,33.2234254 57.200442,34.1710497 C56.5958011,34.7739227 55.1938122,35.2123757 54.0499448,36.3562431 C54.5361326,35.238895 54.1118232,34.0579006 54.0075138,34.0579006 C53.9032044,34.0579006 54.0075138,34.7314917 53.3480663,35.3838674 C52.7416575,35.9902762 51.5695028,36.2961326 50.6961326,37.1730387 C49.479779,38.3893923 49.6972376,40.2333702 49.6972376,40.8963536 L49.6972376,41.0872928 C49.520442,41.2092818 49.3560221,41.3454144 49.1827624,41.4956906 C47.832516,42.6387625 47.0608533,44.3233325 47.0771271,46.0923757 C47.0771271,49.5222099 49.2994475,51.8435359 51.2601105,53.8890608 C52.1264088,54.7942541 52.9449724,55.6570166 53.5390055,56.5409945 C54.1507182,57.4620994 54.4371271,58.2983425 54.4371271,59.1717127 C54.4475545,59.9879548 54.1723911,60.7821764 53.6592265,61.4170166 C53.1058564,62.0676243 52.3279558,62.398232 51.360884,62.398232 C49.6760221,62.398232 48.4366851,61.7670718 47.1177901,61.1005525 C46.4473433,60.734474 45.7580625,60.4039969 45.0528177,60.1104972 C44.678011,56.3977901 42.0154696,54.1701657 42.0154696,50.7014365 C42.0154696,48.8132597 42.8552486,47.7648619 42.5458564,46.440663 C43.1487293,47.0435359 44.1953591,47.2574586 44.5383425,47.2574586 C44.7500238,47.2644494 44.9575417,47.1975687 45.1253039,47.0682873 C45.1329985,47.0612536 45.1373814,47.0513089 45.1373814,47.040884 C45.1373814,47.030459 45.1329985,47.0205144 45.1253039,47.0134807 L45.1253039,47.0134807 C44.5951073,46.6224678 44.2815958,46.0033153 44.280221,45.3445304 C44.280221,44.198895 44.7080663,43.3237569 44.7080663,42.1904972 C44.7164426,41.470174 44.4481341,40.7740907 43.958453,40.2457459 C44.4753395,40.7192791 45.1341178,41.008893 45.8324862,41.0696133 C46.2285083,41.0696133 46.440663,41.0077348 46.5679558,40.9104972 C46.5867494,40.8971578 46.5914589,40.8712558 46.5785635,40.8521547 C46.5754845,40.8481897 46.5719208,40.844626 46.5679558,40.841547 C46.3487293,40.7089503 45.4718232,40.1166851 45.4718232,39.2061878 C45.4718232,38.1648619 45.7635359,37.9686188 45.7635359,37.238453 C45.7617006,36.7954656 45.6434184,36.3607478 45.4205525,35.9779006 C45.7457392,36.1585403 46.109499,36.2585742 46.481326,36.2696133 C47.1248619,36.2696133 47.4943646,36.1104972 47.718895,35.9160221 C47.7323488,35.9053239 47.7376224,35.8873217 47.732068,35.8710551 C47.7265135,35.8547885 47.7113308,35.8437714 47.6941436,35.8435359 C46.0693923,35.719779 46.2921547,32.0229834 44.759337,30.6634254 C44.8934063,30.6884188 45.0295958,30.7002614 45.1659669,30.6987845 C45.6963536,30.6987845 46.3398895,30.2461878 46.5679558,29.8148066 C46.5737402,29.8054686 46.5755007,29.7941876 46.5728366,29.7835312 C46.5701725,29.7728747 46.5633104,29.7637494 46.5538122,29.758232 C46.5474571,29.7564143 46.5407197,29.7564143 46.5343646,29.758232 C43.601326,29.6079558 42.6660773,23.1089503 36.0521547,24.4172376 C36.3866236,24.0013385 36.7954826,23.6512305 37.2579006,23.3847514 C37.2682372,23.3791453 37.2759139,23.3696513 37.2792319,23.3583701 C37.2825499,23.3470889 37.2812357,23.3349505 37.2755801,23.3246409 C37.2715964,23.3171058 37.2654357,23.310945 37.2579006,23.3069613 C36.960884,23.1938122 36.3297238,22.9533702 34.8499448,22.9533702 C33.3973047,22.9737185 32.0321033,23.6511185 31.1372376,24.7955801 C31.4908287,24.0883978 31.0559116,23.1672928 30.6545856,22.7235359 C30.6472374,22.7157495 30.6370046,22.7113364 30.6262983,22.7113364 C30.6155921,22.7113364 30.6053593,22.7157495 30.598011,22.7235359 C30.5911031,22.7296094 30.5861762,22.7376156 30.5838674,22.7465193 C30.4994597,23.0540135 30.3431114,23.337016 30.1277348,23.5721547 C28.9343646,24.7637569 26.7951381,25.5292818 26.7951381,28.0061878 C26.7951381,28.0061878 26.0985635,28.4552486 25.1509392,29.1005525 C24.2033149,29.7458564 23.6906077,30.7518232 23.6906077,31.0682873 C23.3370166,31.2592265 21.8271823,32.360663 20.6267403,33.559337 C20.598946,33.5872062 20.5945175,33.6307526 20.6161326,33.6636464 C20.7328,33.8506094 20.8243418,34.0521203 20.8883978,34.2629834 C20.9011891,34.3058664 20.9462223,34.3303582 20.9891713,34.3177901 C21.0018022,34.3141803 21.0133427,34.3074989 21.0227624,34.2983425 C21.2109048,34.1085434 21.4238024,33.9450047 21.6556906,33.8121547 C21.4008018,34.0816279 21.2722796,34.4466309 21.3020994,34.8163536 C21.3020994,35.7162431 23.3051934,36.9838674 23.4236464,36.8583425 C23.5102762,36.7717127 23.1867403,35.8488398 23.4908287,35.5447514 C23.9398895,35.0956906 25.5310497,35.039116 26.0243094,35.039116 C26.5175691,35.039116 26.7703867,35.2282873 26.7703867,35.5695028 C26.7703867,36.4181215 26.2877348,37.9880663 24.758453,37.9880663 C24.1396685,37.9880663 23.7365746,37.3904972 23.6358011,37.4912707 C23.5350276,37.5920442 23.6145856,38.4777901 23.8125967,38.7783425 C23.6855009,38.9613991 23.6232692,39.1816995 23.6358011,39.4041989 C23.6358011,40.5003315 25.4444199,41.9023204 25.6300552,41.7166851 C25.7538122,41.5929282 25.2570166,40.3553591 25.5734807,40.3553591 C25.7502762,40.3553591 26.2293923,41.0625414 26.7862983,41.0625414 C26.8023532,41.0641412 26.8183537,41.059021 26.8304972,41.0483978 C26.920663,40.958232 26.4769061,40.3412155 26.7155801,40.0990055 C27.3255249,39.4890608 28.9113812,38.2956906 29.3162431,38.1648619 C30.1577901,37.8943646 30.601547,38.5078453 30.601547,39.3317127 C30.601547,41.1668508 28.6567956,41.5398895 27.0656354,43.1310497 C25.4744751,44.7222099 25.161547,46.9851934 23.160221,46.9851934 C22.8985635,46.9851934 24.64,46.5025414 25.1367956,44.7664088 C19.9107182,44.8053039 19.0249724,41.8864088 14.840221,41.3277348 C14.8288716,41.2609958 14.7974137,41.1993136 14.7500552,41.1509392 C14.638674,41.039558 13.1730387,39.7524862 13.1730387,36.8530387 C13.1900032,36.5951286 13.1037753,36.3410491 12.9333387,36.1467381 C12.7629021,35.9524272 12.5222303,35.8338155 12.2643094,35.8170166 L12.198895,35.8170166 C12.0220994,35.4086188 11.5129282,34.5794475 10.4662983,34.5794475 C9.47447514,34.5794475 9.22872928,35.040884 9.28,35.0992265 C9.33127072,35.1575691 9.76265193,35.000221 10.280663,35.5164641 C10.5190674,35.7590917 10.6807789,36.0665281 10.7456354,36.400442 C10.6203509,36.5489311 10.5509306,36.7365535 10.5493923,36.9308287 C10.1712276,36.8924618 9.79640758,37.0300044 9.53281768,37.3038674 C9.18852678,37.1160249 8.80041843,37.0232694 8.40839779,37.0351381 C6.97458564,37.0351381 6.67756906,38.3292818 6.7359116,38.3893923 C6.79425414,38.4495028 7.04883978,38.159558 7.49259669,38.159558 C7.99469613,38.159558 8.52331492,38.559116 8.80265193,38.8066298 C8.75139529,39.1190836 8.84508382,39.4378848 9.05723757,39.6729282 C9.05723757,39.6729282 8.36950276,39.881547 8.25281768,40.8486188 L8.1520442,40.8751381 C6.2479558,41.4055249 6.60886615,42.8923757 6.6881768,42.8923757 C6.76773481,42.8923757 6.86497238,42.2541436 7.74895028,42.2541436 C7.99828688,42.2525457 8.24693778,42.2804374 8.48972376,42.3372376 C8.75843694,42.8467799 9.29478027,43.1578727 9.87049724,43.1381215 C10.2665193,43.1381215 10.6324862,43.0532597 10.9560221,43.0532597 C11.3909392,43.0532597 11.6632044,43.3149171 11.6632044,43.9266298 C11.6632044,44.8229834 10.8022099,44.5542541 10.4256354,44.9396685 C10.1657459,45.199558 10.1250829,45.44 10.1250829,45.7935912 L10.1250829,45.8377901 C10.0034175,45.8771622 9.87638487,45.8974397 9.74850829,45.8979006 C9.15447514,45.8979006 8.81679558,45.3675138 8.73900552,45.44 C8.63469613,45.5425414 8.98828729,47.2503867 10.1958011,47.2503867 C10.5205392,47.26491 10.8410569,47.1723574 11.1080663,46.9869613 C11.2155511,47.0101695 11.3251767,47.0220209 11.4351381,47.0223204 C12.6532597,47.0223204 12.9290608,45.5531492 14.440663,45.5531492 C15.9522652,45.5531492 18.8605525,47.6428729 19.2742541,50.2523757 C19.2751522,50.2631762 19.2803246,50.2731713 19.2886232,50.2801421 C19.2969217,50.2871129 19.3076596,50.2904824 19.318453,50.2895028 C19.326837,50.2878087 19.334708,50.2841759 19.3414365,50.278895 C19.739156,49.9423127 19.9681585,49.4474345 19.9672928,48.9264088 C20.9411196,49.7023189 21.8696425,50.5334443 22.7482873,51.4156906 C22.7482873,51.4156906 16.7248619,56.0441989 16.4101657,56.2209945 C16.1976898,56.3748199 15.9404504,56.4543529 15.678232,56.4472928 C14.8313812,56.4472928 14.5644199,55.0329282 13.2172376,55.0329282 C12.9956927,55.0295694 12.7792981,55.0998354 12.601989,55.2327072 C12.4272911,55.1988522 12.2495197,55.1834454 12.0716022,55.1867403 C10.480442,55.1867403 10.1904972,57.3241989 10.3425414,57.3241989 C10.4945856,57.3241989 10.6077348,56.7761326 11.3644199,56.7761326 C11.4642762,56.7761326 11.5638468,56.7868009 11.6614365,56.8079558 C11.6469863,57.187508 11.8025505,57.5537321 12.0857459,57.8068508 C11.7864063,57.9415473 11.5454587,58.1793575 11.4068508,58.4769061 C9.50629834,58.5387845 9.54696133,60.7646409 9.72375691,60.7646409 C9.85635359,60.7646409 9.93237569,59.8346961 11.0214365,59.8346961 C11.1194731,59.8404924 11.2149465,59.8682884 11.3007735,59.9160221 C11.4952486,60.7434254 12.0645304,61.201326 12.7381215,61.201326 C12.5719337,61.5142541 12.598453,62.0128177 12.7787845,62.4477348 C12.3403315,63.3653039 13.121768,64.6258564 13.3268508,64.6258564 C13.4771271,64.6258564 13.2914917,63.8214365 13.638011,63.2928177 C13.7138841,63.3110278 13.7915877,63.3205183 13.8696133,63.321105 C14.4518259,63.3177932 14.9870319,63.0008594 15.2698343,62.4919337 C15.2698343,62.4919337 15.3281768,63.3759116 16.199779,63.4590055 C16.3765746,64.2351381 16.8857459,64.8981215 17.0483978,64.8981215 C17.161547,64.8981215 16.9423204,63.8373481 17.2658564,63.158453 C18.5034254,61.920884 17.5328177,60.3049724 18.8216575,59.0143646 C20.3067403,57.5292818 23.961105,56.2033149 26.9630939,56.081326 C28.0486188,57.3047514 29.5549171,59.1504972 30.2479558,59.6278453 C30.2479558,59.6278453 30.2161326,59.6649724 30.1754696,59.7056354 C28.3244199,61.5566851 24.8716022,59.9354696 23.0647514,61.7458564 C22.3469613,62.4636464 22.2497238,63.1266298 21.2366851,63.1266298 C20.9364302,63.1215126 20.6474449,63.011423 20.4198895,62.8154696 C20.4035268,62.7999786 20.3779096,62.7999786 20.361547,62.8154696 C20.3605902,62.821324 20.3605902,62.8272948 20.361547,62.8331492 C20.2454808,63.3684928 20.4085297,63.9261866 20.7946961,64.3146961 C21.4187845,64.9405525 22.1913812,64.8256354 22.3964641,64.7177901 C21.8961326,65.3931492 20.8053039,65.3577901 20.161768,64.9882873 C20.15243,64.9825029 20.141149,64.9807424 20.1304925,64.9834065 C20.119836,64.9860706 20.1107107,64.9929327 20.1051934,65.0024309 C20.1006553,65.0125533 20.1006553,65.0241318 20.1051934,65.0342541 C20.6108287,66.9648619 22.6103867,66.600663 22.6103867,66.600663 C23.0258564,68.6744751 25.0855249,69.5372376 25.0855249,70.9233149 C25.0730311,71.3607298 24.8896016,71.7758265 24.5745856,72.079558 C23.7966851,72.8592265 22.0746961,73.3737017 20.200663,73.3737017 C17.1951381,73.3737017 17.1491713,71.2309392 15.4996685,71.2309392 C15.2904745,71.2305986 15.0820415,71.2561332 14.879116,71.3069613 C14.513448,70.9293223 14.0080418,70.7194828 13.4824309,70.7270718 C12.478232,70.7270718 11.8912707,71.8638674 12.0291713,72 C12.1140331,72.0848619 12.4057459,71.7259669 12.8565746,71.7259669 C13.1398983,71.75827 13.3796947,71.9499696 13.4735912,72.2192265 C13.394008,72.3207443 13.3224825,72.428328 13.2596685,72.5409945 C13.0521225,72.4895172 12.8387807,72.4651523 12.6249724,72.4685083 C10.7332597,72.4685083 10.7668508,74.6537017 10.9630939,74.6537017 C11.078011,74.6537017 11.3272928,73.8439779 12.2430939,73.9465193 C12.0559159,74.2955422 11.9581225,74.685501 11.958453,75.081547 L11.958453,75.2583425 C11.5003455,75.5162101 11.2091109,75.9935671 11.1893923,76.518895 C11.1893923,77.3091713 11.3396685,77.7122652 11.4598895,77.7122652 C11.5801105,77.7122652 11.7250829,76.798232 12.4198895,76.4976796 C12.7390549,76.9284559 13.1934981,77.2397184 13.7104972,77.3816575 C13.6207924,77.7998521 13.5792696,78.2269434 13.5867403,78.6545856 C13.5867403,79.3847514 13.8148066,80.3659669 13.9686188,80.3659669 C14.1224309,80.3659669 14.200221,79.2327072 14.6934807,78.7924862 C14.9057335,78.9956832 15.1531401,79.1586241 15.4236464,79.2733702 C15.7191252,79.4038492 16.0394787,79.4684025 16.3624309,79.4625414 L16.4278453,79.4625414 C18.9524862,79.4218785 20.5630939,77.1076243 22.4601105,77.1076243 C23.520884,77.1076243 23.5385635,78.0994475 23.1531492,78.521989 C26.0207735,78.521989 26.841105,76.3385635 28.5913812,76.3385635 C29.4753591,76.3385635 30.2762431,76.8106077 31.0877348,76.8035359 C31.751813,76.8363437 32.3696488,76.4638251 32.6506077,75.8612155 C32.6611674,75.8416675 32.6540822,75.8172629 32.6346961,75.8064088 L32.6134807,75.8064088 C31.2733702,75.8205525 30.7076243,75.1876243 30.601547,74.7916022 C33.000663,75.760442 33.7025414,74.2612155 33.8422099,73.8634254 C33.8492412,73.8414777 33.8374675,73.8179304 33.8156906,73.8103867 C33.8065957,73.8068365 33.7964982,73.8068365 33.7874033,73.8103867 C33.6409161,73.8705707 33.4843261,73.9023687 33.3259669,73.9040884 C32.0318232,73.9040884 30.6351381,72.5958011 30.6351381,70.7854144 C30.6351381,69.0704972 31.8249724,68.0998895 32.9564641,67.7798895 C33.840442,65.2499448 35.1080663,64.7407735 34.6218785,63.160221 L34.6218785,63.1443094 L34.6218785,63.1443094 C34.8447987,63.5217601 34.9790082,63.9449432 35.0143646,64.3818785 C35.0143646,66.0508287 33.4125967,67.0090608 33.4125967,69.6539227 C33.4125967,72.64 35.7374586,72.521547 35.7374586,74.5175691 C35.760292,75.0180039 35.611874,75.5112754 35.3166851,75.9160221 C35.3097446,75.9251145 35.3067692,75.9366239 35.3084335,75.9479408 C35.3100977,75.9592577 35.3162606,75.9694232 35.3255249,75.9761326 L35.3432044,75.9761326 C35.6278453,76.0185635 36.7151381,76.0521547 37.7688398,74.3160221 C39.1566851,75.0338122 38.7836464,76.241326 38.6775691,76.5153591 C38.6704104,76.5377746 38.6820688,76.5618688 38.7040884,76.5701657 L38.718232,76.5701657 C40.5250829,76.5135912 41.1085083,74.0596685 41.1085083,74.0596685 C42.6996685,73.8828729 43.961989,74.4362431 43.961989,75.1080663 C43.961989,76.8353591 40.7337017,80.0760221 38.3699448,80.0760221 C37.4859669,80.0760221 37.1836464,79.158453 36.4128177,79.158453 C35.9832757,79.1294548 35.5821848,79.3746446 35.4121547,79.7701657 C35.1203366,79.6402658 34.8051419,79.5710914 34.4857459,79.5668508 C33.7361326,79.5668508 33.0713812,79.9893923 32.8450829,80.9158011 C31.8320442,81.2499448 31.6216575,82.8251934 31.7224309,82.9277348 C31.8232044,83.0302762 32.2987845,82.1710497 33.1367956,82.3725967 C33.2654323,82.5758866 33.4160234,82.7644219 33.5858564,82.9348066 C33.3857473,83.0397411 33.2027391,83.1744638 33.0430939,83.3343646 C32.0459669,84.3297238 32.2970166,85.4453039 32.3924862,85.5407735 C32.4879558,85.6362431 32.6771271,85.1535912 32.9546961,84.8777901 C33.192433,84.6037961 33.5396403,84.4496257 33.9023204,84.4570166 C34.241768,85.1040884 34.9754696,85.2667403 35.4439779,85.2667403 C35.3874033,85.8466298 35.3944751,86.8225414 35.5394475,86.9675138 C35.6455249,87.0735912 36.0963536,86.1330387 36.7770166,85.639779 C37.1541124,85.8968343 37.5942634,86.0459966 38.0499448,86.0711602 C39.3688398,86.0711602 40.5409945,85.4541436 41.4921547,84.5029834 C42.878232,83.1169061 43.8293923,80.8945856 45.001547,80.8945856 C45.7405525,80.8945856 45.5955801,81.5664088 45.5725967,81.6495028 C47.4678453,81.6495028 46.6616575,79.3334807 50.2647514,75.7303867 C50.7049724,75.2883978 51.2194475,74.9047514 51.2866298,74.4680663 C51.289816,74.4461538 51.2748837,74.42572 51.2530387,74.4220994 C51.2439438,74.4185492 51.2338463,74.4185492 51.2247514,74.4220994 C50.9065193,74.6236464 50.0985635,74.6855249 49.7361326,74.3230939 C49.7361326,74.3230939 52.6532597,72.8733702 52.7416575,70.7058564 C52.7417315,70.6827627 52.7240142,70.6635048 52.7009945,70.6616575 C52.6923631,70.658943 52.6831065,70.658943 52.6744751,70.6616575 C51.8877348,71.2822099 50.4291713,71.1390055 50.4291713,71.1390055 C51.1080663,70.5909392 51.6101657,69.0369061 50.9082873,67.5659669 C50.8979841,67.5450315 50.8727103,67.5363436 50.8517127,67.5465193 C50.8428714,67.5501118 50.8358577,67.5571256 50.8322652,67.5659669 C50.1533702,69.1695028 48.7743646,69.7175691 47.519116,69.7175691 C45.721105,69.7175691 44.1971271,68.2713812 44.1971271,66.2948066 C44.1971271,64.6028729 44.7451934,63.8426519 44.9697238,62.3328177 C45.3533702,62.4990055 45.7476243,62.6987845 46.1683978,62.9127072 C47.5721547,63.6198895 49.1633149,64.4349171 51.3467403,64.4349171 C52.1198328,64.442466 52.885531,64.2839002 53.5920442,63.9699448 C54.2263991,63.680127 54.7890116,63.2539419 55.239779,62.721768 C56.0767668,61.7124727 56.5279106,60.4386181 56.5127072,59.1275138 C56.5127072,56.3235359 54.6050829,54.3292818 52.7575691,52.4092818 C51.8453039,51.4563536 50.9012155,50.4645304 50.2205525,49.4037569 C49.4921547,48.2704972 49.159779,47.2044199 49.159779,46.0446409 C49.159779,44.8848619 49.8121547,43.6437569 50.7032044,42.841105 C50.7032044,42.841105 52.6921547,43.9478453 54.9745856,43.9478453 C57.2570166,43.9478453 58.6271823,42.2718232 58.6271823,42.2718232 C59.6773481,41.2216575 60.801768,41.3878453 60.9166851,41.2729282 C61.0316022,41.158011 60.4358011,40.5763536 59.6154696,40.5763536" id="Shape" fill="#FFE600" data-v-cb7b9402=""></path></g></g></g></g></svg>