<svg class=" next-match__comp-logo" viewBox="0 0 428.2 180.3">
		
	<path d="M168.7 90V30.3h18.9c12.3 0 21.6 7.3 21.6 20s-9.1 20.3-21.6 20.3h-7.3V90h-11.6zm11.6-30.7h6.7c5.9 0 10.1-3.2 10.1-9.1s-4.3-9-10.1-9h-6.8l.1 18.1zm184.6 96.3c-8.7 0-19.2-4.7-19.2-19.4v-21h10.9v20.3c0 6.8 3.1 9.7 8.4 9.7 4.8 0 8.4-3.4 8.4-9.7v-20.2h10.9v21c-.2 14.7-10.9 19.4-19.4 19.3zm-93.6 0c-10.4 0-19.5-9.6-19.5-20.7s9.1-20.3 19.5-20.3c5.9 0 9.8 2 12.2 5.7l1.2-5.1h9.5v39.3h-9.5l-1.2-5c-2.8 4-7.3 6.3-12.2 6.1zm2.2-31.1c-5.7-.1-10.4 4.4-10.6 10.1s4.4 10.4 10.1 10.6c5.7.1 10.4-4.4 10.6-10.1v-.1c.2-5.5-4.1-10.2-9.6-10.4l-.5-.1zM344.8 90h10.9V50.7h-10.9V90zm5.5-44.6c-3.1 0-5.5-2.6-5.5-5.6 0-3.1 2.6-5.5 5.6-5.5 3.1 0 5.5 2.6 5.5 5.6 0 3-2.5 5.4-5.5 5.5h-.1zm-21.8 21.4c0-4.3-2.4-6.9-6-6.9-4.3 0-6.5 2.6-6.5 7V90h-10.9V66.8c0-4.3-2.4-6.9-6-6.9-4.2 0-6.5 2.6-6.5 7V90h-10.9V50.7h9.5l1.2 5.1c1.7-3.8 5.5-6.3 9.7-6.2 4.4-.1 8.6 2.1 11 5.9l.3.4.3-.4c2.5-3.9 6.9-6.1 11.5-5.9 8.4 0 14.1 6.3 14.1 15.3V90h-10.9V66.8zM404.4 90V50.7h9.4l1.2 5.7c1.8-3.9 5.7-6.3 10-6.2 1 0 2.1.1 3.1.4V61c-1.3-.3-2.5-.4-3.8-.4-5.3 0-9 3.2-9 9.5V90h-10.9zm-191.5 0V50.7h9.4l1.2 5.7c1.8-3.9 5.7-6.3 10-6.2 1 0 2.1.1 3.1.4V61c-1.3-.3-2.5-.4-3.8-.4-5.3 0-8.9 3.2-8.9 9.5V90h-11zm-44.2 64.6V96.3h11.6v47.3h25.3v11h-36.9zm60.3 1c-12.2 0-21.1-8.4-21.1-20.6 0-11 8.1-20.8 20.9-20.8 9.5 0 19.4 7.2 19.4 20.6 0 1.3-.1 2.6-.3 3.8h-28.8c1 4.4 5 7.4 9.8 7.4 4 .1 7.9-1.6 10.6-4.6l6.6 6.8c-4.3 4.8-10.6 7.6-17.1 7.4zm-.5-31.9c-4.6 0-8.4 2.7-9.3 6.9h18.2c-1-4.1-4.7-6.9-8.9-6.9zm180.6 31.9c-12.2 0-21.1-8.4-21.1-20.6 0-11 8.1-20.8 20.9-20.8 9.5 0 19.4 7.2 19.4 20.6 0 1.3-.1 2.6-.3 3.8h-28.8c1 4.4 5 7.4 9.8 7.4 4 .1 7.9-1.6 10.6-4.6l6.6 6.8c-4.4 4.8-10.6 7.5-17.1 7.4zm-.6-31.9c-4.5 0-8.4 2.7-9.2 6.9h18.2c-1-4.1-4.8-6.9-9-6.9zM381 91.1c-12.2 0-21.1-8.4-21.1-20.6 0-11 8.1-20.8 20.9-20.8 9.5 0 19.4 7.2 19.4 20.6 0 1.3-.1 2.6-.3 3.8H371c1 4.4 5 7.3 9.8 7.3 4 .1 7.9-1.6 10.6-4.6l6.6 6.8c-4.3 4.8-10.5 7.6-17 7.5zm-.6-31.9c-4.5 0-8.4 2.7-9.2 6.9h18.2c-1-4.1-4.7-7-9-6.9zm-122 31.9c-12.2 0-21.1-8.4-21.1-20.6 0-11 8.1-20.8 20.9-20.8 9.5 0 19.4 7.2 19.4 20.6 0 1.3-.1 2.5-.3 3.8h-28.8c1 4.4 5 7.3 9.8 7.3 4 .1 7.9-1.6 10.6-4.6l6.6 6.8c-4.4 4.8-10.6 7.5-17.1 7.5zm-.6-31.9c-4.6 0-8.4 2.7-9.2 6.9h18.2c-.9-4.2-4.7-7.1-9-6.9zm62.2 65.3c-5.7-.1-10.4 4.5-10.5 10.2s4.5 10.4 10.2 10.5c5.7.1 10.4-4.5 10.5-10.2.2-5.6-4.2-10.3-9.8-10.4h-.4zm9.7-4.2 1.2-5h9.5v37.6c0 7.3-2 12.5-6.9 16.3-4.2 3.2-9.4 4.9-14.7 4.8-8.2 0-14.1-2.8-18.8-7.3l6-8.4c2.9 2.8 6.9 5.3 12 5.3 8.1 0 11.6-4 11.6-9.8V151c-2.9 3.1-7 4.8-11.3 4.7-11.2 0-20-9.1-20-20.7-.1-11.1 8.9-20.2 20-20.3h.3c4.4 0 8.5 2 11.1 5.6zM30.7 14.8c5 2.3 9.6 5.3 13.7 8.8-.4-2-2-11.8-2.8-17.8C46.2 9 56.8 16.3 60.2 18.7 61.7 14.3 66.6 0 66.6 0S75.5 14.4 77 16.8C78.8 14.8 89.5 3 92.2 0c.5 6.8 1.1 16.5 1.2 18 3.3-4.4 7.1-8.3 11.4-11.7-3 5.8-4.4 13.9-5 20.3-20.1-5.6-41.5-3-59.6 7.3-2-6.2-5.2-14-9.5-19.1zm81.7 81v-10c-3.3-1.2-6.5-3-9.3-5.2-9.6 1.4-21.2 11.1-21.2 11.1s3.9 7.4 8.2 15.5c7.6 1.1 18.7-8.4 22.3-11.4zM122 114c-.7-2.9-2.1-5.7-4-8l-7.5.2s-10.1 8.7-16.3 8.9c0 0 3.4 6.3 5.1 9.6 3.4-.7 9.4-3.4 11.8-6.2 1 3.6 1.4 7.4 1.3 11.2 3.3-2.1 8-7.3 9.6-15.7zm3.1-32.9c-2.2 1.9-4.5 3.5-7 4.9v10.1c2.7 3 5.4 5.5 7.4 10 3.7-6.8 3-16.8-.4-25zm.8-9 .6-4.6c.2-2.5-.4-6.7-4-11-4.4-4.9-15.4-12.8-20.6-14.7 0 0-.4 5.1-2.2 7.5-10.4-7.5-15.6-9.4-15.6-9.4-11.5 1.6-18.8 6.1-22.8 9.5l3.5 3c-6.9 2.1-11.4 8.1-11.4 8.1l6.2 1S59 68.7 68 73.2c7.7 3.9 18.8-.9 29.3 3.3-3.5-4.2-7.4-8.1-11.6-11.5-1.5-.3-3.1-.5-4.7-.6-2.4 0-6 .5-9.9-1-2-.9-3.9-1.9-5.8-3.1 3.3-3.1 7.4-5.2 11.8-6.1 4.1 1.2 7.9 3.1 11.4 5.5 1.8-1.9 4.2-3 6.8-3.2 0 0-3.5 3.2-2.4 7.2 3.7 3.4 7.3 7.1 10.5 10.9 5.6-3 17.7-2.3 20.1.5-3.1-4.1-7.7-7.5-11.2-10.4-.4-1.5-4.3-6.9-4.9-7.3 2.5.9 4.9 2.2 6.9 4 1.3-1.7 3-2.8 5.1-3.3 1.7 1.5 2.7 3.5 2.8 5.7-.6.8-1.3 1.4-2.2 1.9l5.9 6.4.6-4.5-.6 4.5zm5.9 3.7c9 16.6 11.2 36.5 4.9 56.3-.4-.4-5.1-5.7-7.1-7.9-1.2 19.4-6.9 34.4-23.6 47.1 0 0-1.6-6.1-2.5-9.9-27.4 20.1-51 10.9-57.6 7.6 5.1-23.5 1.1-37-2.3-47.3-7.3 12-14.8 21.3-22.2 27.6-5.1-11.9-5.5-34.1-1.4-47.1-1.4.4-9.4 2.9-13.9 4.3 1.8-12 9.7-28.1 18.1-36.1-1.5-.3-5.8-.9-9.2-1.4 2.1-4.3 8.2-12.2 17.5-19.6-.3 5.2 1.7 11.5 7.6 14.5-3.8-6.6-4.2-14.7-.3-18.9s10.5-2.8 14.7.5c-.9-2.7-2.7-5-5-6.7 13-6.2 27.5-8.3 41.7-6.1 2.4 2.1 4.6 4.5 6.6 7 0-2-.2-3.9-.6-5.9 7.1 1.7 14 4.3 20.4 7.7-12.5-12.5-38-16.3-59.3-10.2-4.9 1.4-9.6 3.3-14.2 5.6-3.9.1-7.4 2.2-9.4 5.5-13.6 9-23.6 20.9-28.4 30.9 1.1.2 4.3.6 7.3 1.2C7.5 83-.5 99.4 0 114.1c1.4-.4 8.8-2.7 12.5-3.9-2 13-1.4 34.9 7.1 47.4 10.6-7.5 16.8-15.4 21.9-22.6 1.3 6.4 2.6 17.9-1.9 36.8 3.7 2.8 30.3 16.8 60.5-1.5l2.5 9.9 3.3-2.1c18.3-11.9 25.4-28 27.8-41.1.8.9 4.2 4.6 5.4 5.8 4.5-12.5 13.7-42.7-7.3-67z" style="fill:#fff"></path></svg>